<?xml version="1.0" standalone="no"?>
<!DOCTYPE svg PUBLIC "-//W3C//DTD SVG 20010904//EN"
 "http://www.w3.org/TR/2001/REC-SVG-20010904/DTD/svg10.dtd">
<svg version="1.0" xmlns="http://www.w3.org/2000/svg"
 width="500.000000pt" height="500.000000pt" viewBox="0 0 500.000000 500.000000"
 preserveAspectRatio="xMidYMid meet">
<metadata>
Created by potrace 1.11, written by Peter Selinger 2001-2013
</metadata>
<g transform="translate(0.000000,500.000000) scale(0.100000,-0.100000)"
fill="#000000" stroke="none">
<path d="M0 2500 l0 -2500 2500 0 2500 0 0 2500 0 2500 -2500 0 -2500 0 0
-2500z m1900 879 c0 -9 -21 -88 -60 -231 l-11 -38 -122 0 -123 0 -22 -87 c-31
-122 -66 -253 -92 -348 -12 -44 -23 -87 -25 -95 -2 -8 -13 -51 -25 -95 -12
-44 -23 -87 -25 -95 -2 -8 -13 -49 -25 -90 -11 -41 -23 -84 -25 -95 -2 -11
-13 -56 -25 -100 -30 -109 -36 -131 -53 -195 -8 -30 -29 -108 -46 -173 -17
-65 -31 -120 -31 -123 0 -2 -65 -4 -145 -4 -80 0 -145 4 -145 8 0 4 7 35 16
67 9 33 24 92 34 130 10 39 28 106 39 150 12 44 33 122 47 173 14 51 27 100
29 110 5 18 25 95 50 184 7 29 20 78 28 108 38 144 88 330 102 380 16 55 26
96 40 158 l8 32 -123 0 -122 0 6 28 c4 15 8 34 9 42 4 20 24 92 43 158 l16 52
389 0 c266 0 389 -3 389 -11z m365 -26 c148 -55 317 -189 423 -338 33 -47 63
-82 65 -78 3 5 15 46 27 93 12 47 28 110 37 140 8 30 19 74 23 98 5 23 14 51
20 61 5 11 10 29 10 40 0 20 5 21 150 21 l150 0 -9 -22 c-5 -13 -21 -70 -36
-128 -14 -58 -31 -121 -37 -140 -6 -19 -15 -51 -19 -70 -4 -19 -14 -62 -23
-95 -10 -33 -28 -103 -42 -155 -14 -52 -33 -120 -41 -150 -8 -30 -16 -62 -18
-70 -2 -8 -12 -49 -23 -90 -48 -176 -75 -281 -97 -365 -13 -49 -36 -133 -50
-185 -14 -52 -38 -142 -53 -200 l-27 -105 -148 -3 c-138 -2 -148 -1 -143 15 2
10 12 43 20 73 9 30 27 93 40 140 65 223 73 258 107 450 24 131 21 216 -11
342 -32 126 -75 202 -166 295 -124 123 -115 124 -153 -20 -17 -67 -38 -147
-47 -177 -8 -30 -19 -71 -24 -90 -5 -19 -16 -60 -24 -90 -9 -30 -32 -118 -52
-195 -19 -77 -42 -160 -49 -185 -15 -48 -35 -123 -40 -149 -2 -9 -10 -41 -19
-71 -8 -30 -24 -91 -36 -135 -12 -44 -29 -108 -38 -142 l-17 -63 -146 0 -146
0 14 53 c8 28 27 102 43 162 16 61 47 175 68 255 22 80 54 199 71 265 18 66
42 154 53 195 11 41 28 107 38 145 10 39 28 106 40 150 12 44 23 87 25 95 2 8
13 51 25 95 12 44 23 88 25 98 5 20 16 60 39 133 9 29 16 59 16 67 0 9 5 28
10 42 10 26 12 27 68 21 31 -4 89 -19 127 -33z m1830 -5 c-4 -24 -13 -59 -20
-78 -6 -19 -18 -63 -25 -97 l-14 -63 -123 0 c-90 0 -125 -3 -127 -12 -3 -7
-21 -76 -40 -153 -44 -167 -63 -239 -77 -282 -5 -18 -12 -40 -14 -50 -2 -10
-13 -54 -25 -98 -12 -44 -23 -87 -25 -96 -5 -23 -25 -99 -36 -135 -5 -17 -22
-83 -39 -146 -16 -63 -39 -151 -51 -194 -34 -126 -71 -266 -78 -299 l-7 -30
-148 -3 -148 -3 6 23 c3 13 22 83 41 157 20 73 38 137 40 142 3 4 9 27 14 51
5 24 17 69 25 101 16 60 44 162 50 187 22 83 49 184 60 225 22 77 37 137 41
154 2 9 11 43 20 76 28 99 46 168 54 205 4 19 13 51 19 70 6 19 15 52 20 73
l10 37 -124 0 c-68 0 -124 3 -124 8 0 4 5 23 11 42 5 19 12 42 14 50 1 8 11
42 20 75 9 33 19 70 22 83 l5 22 390 0 390 0 -7 -42z"/>
</g>
</svg>
